<svg xmlns="http://www.w3.org/2000/svg" width="370" height="72.14" viewBox="0 0 370 72.14"><g transform="translate(-4.1 -37)"><g transform="translate(4.1 37)"><path d="M77.2,43.523,93.75,37l11.683,19.617L93.264,41.624Z" transform="translate(-41.616 -37)" fill="#a97817"/><path d="M63.488,54.1,55.7,76.735H70.936Z" transform="translate(-30.582 -45.776)" fill="#a97817"/><path d="M58,43.2l6.474,3.992L70.7,43.2Z" transform="translate(-31.763 -40.182)" fill="#a97817"/><path d="M80.594,107,73,112.6v7.545l7.594,3.261,4.381-3.8Z" transform="translate(-39.461 -72.926)" fill="#693300"/><path d="M84.975,139.2l-4.186,16.6L73,161.592V148.984Z" transform="translate(-39.461 -89.451)" fill="#693300"/><path d="M63.766,138l6.425,2.921-6.815,5.5L57,140.921Z" transform="translate(-31.249 -88.836)" fill="#a97817"/><path d="M77.2,55.6l9.3,5.744,6.766,8.081-5.89-9.151Z" transform="translate(-41.616 -46.546)" fill="#a97817"/><path d="M106.2,69.2l11.634,8.859.633,10.66,3.6-12.218Z" transform="translate(-56.5 -53.526)" fill="#a97817"/><path d="M118.4,98l2,21.126,3.407-12.7Z" transform="translate(-62.761 -68.306)" fill="#a97817"/><path d="M106.339,121.777,94.9,131.61l7.2-11.245L104.149,97Z" transform="translate(-50.701 -67.793)" fill="#a97817"/><path d="M24.8,121.777l11.488,9.833-7.253-11.245L27.039,97Z" transform="translate(-14.724 -67.793)" fill="#a97817"/><path d="M96.929,89.3l-6.718,5.111L88.8,90.322Z" transform="translate(-47.57 -63.842)" fill="#f37021"/><path d="M49.632,107l7.594,5.6v7.545L49.632,123.4l-4.332-3.8Z" transform="translate(-25.245 -72.926)" fill="#693300"/><path d="M45.3,139.2l4.186,16.6,7.74,5.793V148.984Z" transform="translate(-25.245 -89.451)" fill="#693300"/><path d="M48.715,55.6l-9.687,6.62-6.328,7.2,5.89-9.151Z" transform="translate(-18.778 -46.546)" fill="#a97817"/><path d="M18.7,98l-1.947,21.126-3.456-12.7Z" transform="translate(-8.822 -68.306)" fill="#a97817"/><path d="M32,91.4l6.133,7.594-1.314,9.833,3.943-11.293Z" transform="translate(-18.419 -64.919)" fill="#a97817"/><path d="M101.562,91.4l-6.133,7.594,1.314,9.833L92.8,97.533Z" transform="translate(-49.623 -64.919)" fill="#a97817"/><path d="M37.4,89.3l6.718,5.111,1.363-4.089Z" transform="translate(-21.19 -63.842)" fill="#f37021"/><path d="M35.833,43.523,19.331,37,7.6,56.617,19.818,41.624Z" transform="translate(-5.896 -37)" fill="#a97817"/><path d="M19.92,69.2,8.286,78.059,7.7,88.72,4.1,76.5Z" transform="translate(-4.1 -53.526)" fill="#a97817"/></g><g transform="translate(77.214 51.36)"><g transform="translate(0 34.513)"><path d="M163.223,141.609a2.48,2.48,0,0,0-.674-1.852,2.693,2.693,0,0,0-1.936-.674,3.394,3.394,0,0,0-1.852.505,4.508,4.508,0,0,0-1.263,1.263,5.612,5.612,0,0,0-.758,1.768,7.649,7.649,0,0,0-.252,1.936,3.749,3.749,0,0,0,.842,2.61,3.167,3.167,0,0,0,2.357.926,2.3,2.3,0,0,0,1.347-.337,2.633,2.633,0,0,0,.926-.758,2.005,2.005,0,0,0,.505-.926,7.742,7.742,0,0,0,.253-.758h2.02a5.82,5.82,0,0,1-.758,1.936A6.156,6.156,0,0,1,162.8,148.6a6.462,6.462,0,0,1-1.515.842,5.982,5.982,0,0,1-1.768.253,6.426,6.426,0,0,1-2.273-.421,3.629,3.629,0,0,1-1.6-1.094,5.172,5.172,0,0,1-1.01-1.6,5.093,5.093,0,0,1-.337-2.02,7.49,7.49,0,0,1,.589-3.2,6.18,6.18,0,0,1,1.431-2.273,5.118,5.118,0,0,1,2.02-1.263,6.844,6.844,0,0,1,4.209-.168,3.367,3.367,0,0,1,1.515.842,2.6,2.6,0,0,1,.926,1.347,3.906,3.906,0,0,1,.337,1.768h-2.1Z" transform="translate(-154.3 -137.4)" fill="#fff"/><path d="M172.388,150.307a4.091,4.091,0,0,1-2.778-.926,3.626,3.626,0,0,1-1.01-2.778,5.659,5.659,0,0,1,.337-2.02,6.88,6.88,0,0,1,1.01-1.684,5.239,5.239,0,0,1,1.515-1.179,5.085,5.085,0,0,1,2.02-.421,4.091,4.091,0,0,1,2.778.926,3.4,3.4,0,0,1,.926,2.694,5.812,5.812,0,0,1-.337,2.1,5.423,5.423,0,0,1-.926,1.684,3.9,3.9,0,0,1-1.515,1.094,4,4,0,0,1-2.02.505m1.01-7.492a2.029,2.029,0,0,0-1.263.337,3.232,3.232,0,0,0-.926.926,2.851,2.851,0,0,0-.505,1.263,7.367,7.367,0,0,0-.168,1.347,2.59,2.59,0,0,0,.505,1.6,1.8,1.8,0,0,0,1.515.589,2.03,2.03,0,0,0,1.263-.337,3.233,3.233,0,0,0,.926-.926,2.851,2.851,0,0,0,.505-1.263,7.365,7.365,0,0,0,.168-1.347,2.59,2.59,0,0,0-.505-1.6,2.088,2.088,0,0,0-1.515-.589" transform="translate(-156.562 -138.016)" fill="#fff"/><path d="M187.8,150.134h-1.768l.253-1.263h0a3.145,3.145,0,0,1-1.263,1.094,3.832,3.832,0,0,1-1.684.421,2.337,2.337,0,0,1-1.852-.589,2.1,2.1,0,0,1-.589-1.6v-.505a1.069,1.069,0,0,1,.084-.505l1.094-5.388h1.852l-1.094,5.219c0,.168-.084.253-.084.421v.673c0,.168.084.253.084.421a.657.657,0,0,0,.337.337,1.682,1.682,0,0,0,.758.168,2.243,2.243,0,0,0,1.01-.252,1.833,1.833,0,0,0,.758-.589,3.021,3.021,0,0,0,.589-.842,4.1,4.1,0,0,0,.337-.926l.926-4.63H189.4Z" transform="translate(-158.508 -138.096)" fill="#fff"/><path d="M193.868,141.568h1.768l-.337,1.684h0a3.506,3.506,0,0,1,.505-.673,2.27,2.27,0,0,1,.673-.589,3.411,3.411,0,0,1,.758-.421,2.988,2.988,0,0,1,.842-.168h.842l-.421,1.768a.506.506,0,0,1-.337-.084h-.337a2.811,2.811,0,0,0-1.263.253,3.74,3.74,0,0,0-.926.674,6.28,6.28,0,0,0-.589,1.01,6.2,6.2,0,0,0-.337,1.179l-.758,3.788H192.1Z" transform="translate(-160.279 -138.033)" fill="#fff"/><path d="M207.476,147.629a3.648,3.648,0,0,1-.084.421c0,.168-.084.253-.084.421,0,.084,0,.253.084.253.084.084.168.084.337.084h.337c.084,0,.253-.084.337-.084l-.337,1.347c-.253.084-.505.084-.758.168a2.331,2.331,0,0,1-.758.084,1.03,1.03,0,0,1-.758-.252,1.068,1.068,0,0,1-.337-.758,3.665,3.665,0,0,1-1.347.842,4.77,4.77,0,0,1-1.515.253,4.225,4.225,0,0,1-1.01-.168,2.629,2.629,0,0,1-.842-.421,2.27,2.27,0,0,1-.589-.673,1.8,1.8,0,0,1-.252-1.01,3.491,3.491,0,0,1,.252-1.347,1.842,1.842,0,0,1,.758-.842,2.608,2.608,0,0,1,1.094-.505c.421-.084.842-.168,1.347-.253.673-.084,1.263-.084,1.852-.168a1.067,1.067,0,0,0,.758-.337,1.029,1.029,0,0,0,.253-.758.929.929,0,0,0-.421-.842,1.822,1.822,0,0,0-1.01-.168,3.206,3.206,0,0,0-1.347.253,1.389,1.389,0,0,0-.758,1.094H200.91a3.718,3.718,0,0,1,.505-1.347,2.24,2.24,0,0,1,.926-.842,2.95,2.95,0,0,1,1.179-.505,7.406,7.406,0,0,1,1.431-.168,4.916,4.916,0,0,1,1.768.253,3.011,3.011,0,0,1,.926.505,1.039,1.039,0,0,1,.337.673,1.643,1.643,0,0,1,.084.589,8.757,8.757,0,0,1-.168,1.263Zm-5.64.084a.9.9,0,0,0,.168.505c.084.168.253.252.337.337a1.2,1.2,0,0,0,.505.168c.168,0,.337.084.505.084a2.689,2.689,0,0,0,1.179-.253,1.834,1.834,0,0,0,.758-.589,9.148,9.148,0,0,0,.505-.926c.084-.337.168-.757.253-1.178h0a.728.728,0,0,1-.505.252,1.853,1.853,0,0,1-.674.084c-.252,0-.589.084-.926.084a3.029,3.029,0,0,0-.926.168,1.627,1.627,0,0,0-.758.421.932.932,0,0,0-.421.842" transform="translate(-161.513 -138.033)" fill="#fff"/><path d="M219.113,149.786c-.168.673-.337,1.178-.505,1.684a3.777,3.777,0,0,1-.842,1.094,3.111,3.111,0,0,1-1.179.589,5.19,5.19,0,0,1-1.684.168,6.541,6.541,0,0,1-1.347-.168,2.953,2.953,0,0,1-1.179-.505,3.991,3.991,0,0,1-.842-.842,2.789,2.789,0,0,1-.337-1.263h1.852a1.071,1.071,0,0,0,.589,1.01,3.206,3.206,0,0,0,1.347.252,3.14,3.14,0,0,0,1.01-.168,1.309,1.309,0,0,0,.673-.505,1.627,1.627,0,0,0,.421-.757c.084-.253.168-.589.253-.926l.168-.842h0a2.812,2.812,0,0,1-2.357,1.263,3.233,3.233,0,0,1-2.441-.926,3.4,3.4,0,0,1-.842-2.526,7.646,7.646,0,0,1,.252-1.936,6.312,6.312,0,0,1,.842-1.683,3.6,3.6,0,0,1,1.347-1.179,3.353,3.353,0,0,1,1.852-.421,3.2,3.2,0,0,1,1.6.337,2.6,2.6,0,0,1,1.01,1.263h0l.253-1.431H220.8Zm-5.388-3.283a2.864,2.864,0,0,0,.084.842,1.692,1.692,0,0,0,.337.673,1.511,1.511,0,0,0,.589.421,2.488,2.488,0,0,0,.842.168,2.028,2.028,0,0,0,1.263-.337,2.239,2.239,0,0,0,.842-.926,2.951,2.951,0,0,0,.505-1.179,7.361,7.361,0,0,0,.168-1.347,1.98,1.98,0,0,0-.505-1.431,1.851,1.851,0,0,0-1.431-.505,1.933,1.933,0,0,0-1.179.337,3,3,0,0,0-.842.926,2.951,2.951,0,0,0-.505,1.179,2.676,2.676,0,0,0-.168,1.179" transform="translate(-163.3 -138.001)" fill="#fff"/><path d="M231.729,147.461a3.839,3.839,0,0,1-1.515,2.189,5,5,0,0,1-2.61.673,4.771,4.771,0,0,1-1.515-.252,3.532,3.532,0,0,1-1.179-.758,2.854,2.854,0,0,1-.758-1.178,4.4,4.4,0,0,1-.253-1.515,5.221,5.221,0,0,1,.337-1.936,4.75,4.75,0,0,1,.926-1.684,4.116,4.116,0,0,1,1.515-1.179,3.965,3.965,0,0,1,2.02-.421,4.053,4.053,0,0,1,1.852.337,3.04,3.04,0,0,1,1.094.926,3.971,3.971,0,0,1,.505,1.263,7.367,7.367,0,0,1,.168,1.347v.589c0,.168-.084.337-.084.505H225.92v.589a1.979,1.979,0,0,0,.505,1.431,2.057,2.057,0,0,0,1.515.505,2.029,2.029,0,0,0,1.263-.337,2.3,2.3,0,0,0,.758-1.01h1.768Zm-1.347-2.357V144.6a1.712,1.712,0,0,0-.505-1.263,1.777,1.777,0,0,0-1.347-.505,2.351,2.351,0,0,0-1.684.674,3.36,3.36,0,0,0-.926,1.6h4.462Z" transform="translate(-165.309 -138.033)" fill="#fff"/><path d="M243.015,142.414h-1.431l.252-1.431h1.431a6.315,6.315,0,0,1,.337-1.347,1.92,1.92,0,0,1,.505-1.01,2.292,2.292,0,0,1,.842-.673,3.207,3.207,0,0,1,1.347-.253h.758c.253,0,.421.084.673.084l-.337,1.431a1.868,1.868,0,0,0-.758-.084,1.681,1.681,0,0,0-.758.168,1.834,1.834,0,0,0-.421.337,1.217,1.217,0,0,0-.168.589c-.084.253-.084.421-.168.674H246.8l-.253,1.431h-1.684l-1.515,7.071H241.5Z" transform="translate(-168.093 -137.447)" fill="#fff"/><path d="M249.368,141.568h1.768l-.337,1.684h0a3.51,3.51,0,0,1,.505-.673,2.27,2.27,0,0,1,.673-.589,3.411,3.411,0,0,1,.758-.421,2.989,2.989,0,0,1,.842-.168h.842L254,143.168a.506.506,0,0,1-.337-.084h-.337a2.811,2.811,0,0,0-1.263.253,3.741,3.741,0,0,0-.926.674,6.277,6.277,0,0,0-.589,1.01,6.2,6.2,0,0,0-.337,1.179l-.758,3.788H247.6Z" transform="translate(-169.058 -138.033)" fill="#fff"/><path d="M259.588,150.307a4.09,4.09,0,0,1-2.778-.926,3.626,3.626,0,0,1-1.01-2.778,5.656,5.656,0,0,1,.337-2.02,6.881,6.881,0,0,1,1.01-1.684,5.241,5.241,0,0,1,1.515-1.179,5.086,5.086,0,0,1,2.02-.421,4.091,4.091,0,0,1,2.778.926,3.4,3.4,0,0,1,.926,2.694,5.81,5.81,0,0,1-.337,2.1,5.417,5.417,0,0,1-.926,1.684,3.894,3.894,0,0,1-1.515,1.094,4,4,0,0,1-2.021.505m1.01-7.492a2.029,2.029,0,0,0-1.263.337,3.234,3.234,0,0,0-.926.926,2.85,2.85,0,0,0-.5,1.263,7.359,7.359,0,0,0-.168,1.347,2.591,2.591,0,0,0,.505,1.6,1.8,1.8,0,0,0,1.515.589,2.03,2.03,0,0,0,1.263-.337,3.235,3.235,0,0,0,.926-.926,2.851,2.851,0,0,0,.5-1.263,7.348,7.348,0,0,0,.168-1.347,2.591,2.591,0,0,0-.505-1.6,2.088,2.088,0,0,0-1.515-.589" transform="translate(-170.355 -138.016)" fill="#fff"/><path d="M269.452,141.537h1.768l-.253,1.179h0a3.963,3.963,0,0,1,1.263-1.094,3.482,3.482,0,0,1,1.6-.421,2.3,2.3,0,0,1,1.347.337,1.49,1.49,0,0,1,.758,1.178,14.63,14.63,0,0,1,1.263-1.094,3.481,3.481,0,0,1,1.6-.421,2.456,2.456,0,0,1,1.852.589,2.17,2.17,0,0,1,.589,1.684v.505c0,.168-.084.337-.084.5l-1.094,5.388h-1.852l1.01-5.051a3.655,3.655,0,0,0,.084-.421c0-.168.084-.337.084-.589v-.421c0-.168-.084-.253-.168-.421a1.166,1.166,0,0,0-.337-.253,1.248,1.248,0,0,0-.589-.084,1.7,1.7,0,0,0-.926.253,4.616,4.616,0,0,0-.758.589l-.505.758a2.673,2.673,0,0,0-.253.758l-1.01,4.967h-1.852l.926-4.63c.084-.253.084-.505.168-.758a2.33,2.33,0,0,0,.084-.758,1.357,1.357,0,0,0-.252-.758,1.122,1.122,0,0,0-.842-.337,3.027,3.027,0,0,0-.926.168,2.027,2.027,0,0,0-.673.505c-.168.168-.337.421-.589.673a3.113,3.113,0,0,0-.421.926l-1.01,4.883H267.6Z" transform="translate(-172.222 -138.001)" fill="#fff"/><path d="M292.3,141.6h1.936l.505,6.145h0L297.6,141.6h1.936l.337,6.145h.084l2.946-6.145h1.936l-4.377,8.5h-2.02l-.337-6.145h0l-2.862,6.145H293.31Z" transform="translate(-176.129 -138.065)" fill="#fff"/><path d="M309.068,141h1.852l-1.768,8.5H307.3Zm.674-3.2h1.852l-.337,1.768H309.4Z" transform="translate(-178.501 -137.463)" fill="#fff"/><path d="M315.473,138.6h1.852l-.505,2.526H318.5l-.337,1.431h-1.683l-.842,4.125a1.066,1.066,0,0,0-.084.5c0,.168-.084.253-.084.421a.631.631,0,0,0,.084.421.805.805,0,0,0,.589.168h.5a1.069,1.069,0,0,0,.505-.084l-.337,1.347c-.252.084-.505.084-.757.168-.253,0-.505.084-.758.084a2.493,2.493,0,0,1-.842-.168.774.774,0,0,1-.505-.337c-.084-.168-.253-.337-.253-.5a1.436,1.436,0,0,1-.084-.589v-.505a3.655,3.655,0,0,1,.084-.421l1.01-4.63H313.2l.337-1.431h1.515Z" transform="translate(-179.435 -137.59)" fill="#fff"/><path d="M322.057,137.8h1.852l-.926,4.462h0a3.726,3.726,0,0,1,1.263-1.01,3.482,3.482,0,0,1,1.6-.421,2.337,2.337,0,0,1,1.852.589,2.17,2.17,0,0,1,.589,1.684v.505a1.066,1.066,0,0,1-.084.505l-1.094,5.388h-1.852l1.094-5.219c0-.168.084-.253.084-.421v-.674c0-.168-.084-.253-.084-.421a.593.593,0,0,0-.421-.337,1.682,1.682,0,0,0-.758-.168,2.242,2.242,0,0,0-1.01.253,2.622,2.622,0,0,0-.758.589,3.027,3.027,0,0,0-.589.842,4.752,4.752,0,0,0-.337,1.01l-.926,4.63H319.7Z" transform="translate(-180.463 -137.463)" fill="#fff"/><path d="M333.168,141h1.852l-1.768,8.5H331.4Zm.673-3.2h1.852l-.337,1.768H333.5Z" transform="translate(-182.313 -137.463)" fill="#fff"/><path d="M338.483,141.552h1.768L340,142.815h0a3.145,3.145,0,0,1,1.263-1.094,3.831,3.831,0,0,1,1.684-.421,2.336,2.336,0,0,1,1.852.589,2.17,2.17,0,0,1,.589,1.684v.505a1.068,1.068,0,0,1-.084.505l-1.094,5.388h-1.852l1.094-5.219c0-.168.084-.253.084-.421v-.673c0-.168-.084-.253-.084-.421a.592.592,0,0,0-.421-.337,1.68,1.68,0,0,0-.758-.168,2.242,2.242,0,0,0-1.01.253,2.622,2.622,0,0,0-.758.589,3.028,3.028,0,0,0-.589.842,4.756,4.756,0,0,0-.337,1.01l-.926,4.63H336.8Z" transform="translate(-183.168 -138.016)" fill="#fff"/></g><g transform="translate(0.049)"><path d="M154.4,96.729V66.5h5.744V94.3h9.979v2.434Z" transform="translate(-154.4 -66.5)" fill="#a97816"/><g transform="translate(19.763)"><path d="M199.576,74.822a2.62,2.62,0,0,1-1.9.828,2.466,2.466,0,0,1-1.9-.828,2.776,2.776,0,0,1,1.9-4.722,2.428,2.428,0,0,1,1.9.779,2.605,2.605,0,0,1,.779,1.947,2.641,2.641,0,0,1-.779,2m-4.284,3.943h4.77V98.576h-4.77Z" transform="translate(-195 -68.347)" fill="#a97816"/><path d="M222.395,108.039a9.011,9.011,0,0,1-6.62-2.775A9.986,9.986,0,0,1,213,97.914a10.362,10.362,0,0,1,2.823-7.545,8.822,8.822,0,0,1,6.62-2.969,8.947,8.947,0,0,1,6.523,2.872,10.4,10.4,0,0,1,2.823,7.691,9.9,9.9,0,0,1-2.823,7.35,9.46,9.46,0,0,1-6.571,2.726M218.841,104c.828,1.8,2,2.677,3.5,2.677s2.677-.876,3.553-2.629a13.834,13.834,0,0,0,1.266-6.231A15.2,15.2,0,0,0,225.9,91.44c-.876-1.8-2.044-2.726-3.553-2.726s-2.677.876-3.5,2.629a14.588,14.588,0,0,0-1.266,6.279A15.826,15.826,0,0,0,218.841,104" transform="translate(-204.238 -77.226)" fill="#a97816"/><path d="M257.8,107.506V87.695h4.77V91a8.061,8.061,0,0,1,2.823-2.629,7.2,7.2,0,0,1,3.359-.876,6.107,6.107,0,0,1,4.186,1.558,5.368,5.368,0,0,1,1.752,4.186v14.311h-4.77V93.779A3.953,3.953,0,0,0,269.044,91a2.982,2.982,0,0,0-2.239-.974,4.129,4.129,0,0,0-2.385.876,5.369,5.369,0,0,0-1.85,2.288v14.36H257.8Z" transform="translate(-227.23 -77.278)" fill="#a97816"/><path d="M302.6,96.729V66.5h5.647V78.475h10.125V66.5h5.6V96.729h-5.6v-14.9H308.246v14.9Z" transform="translate(-250.222 -66.5)" fill="#a97816"/><path d="M364.443,107.988a8.578,8.578,0,0,1-6.815-3.067,11.093,11.093,0,0,1-2.629-7.5,10.85,10.85,0,0,1,2.483-7.156,8.414,8.414,0,0,1,6.864-2.969,7.817,7.817,0,0,1,5.793,2.19,7.718,7.718,0,0,1,2.093,5.647,12.041,12.041,0,0,1-.389,2.921H359.575a8.21,8.21,0,0,0,1.85,5.062,5.473,5.473,0,0,0,4.332,2,6.709,6.709,0,0,0,4.77-2l.974,1.752a9.391,9.391,0,0,1-7.058,3.115m-4.868-11.634h8.713a10.218,10.218,0,0,0,.146-1.752,6.223,6.223,0,0,0-1.119-3.846A3.585,3.585,0,0,0,364.3,89.3a3.788,3.788,0,0,0-3.456,2.191,9.544,9.544,0,0,0-1.266,4.868" transform="translate(-277.116 -77.175)" fill="#a97816"/><path d="M398.811,108.039a5,5,0,0,1-3.6-1.46,5.1,5.1,0,0,1-1.509-3.846c0-2.288,1.217-4.186,3.651-5.793a15.775,15.775,0,0,1,8.08-2.629V92.17a3.542,3.542,0,0,0-.925-2.58,2.985,2.985,0,0,0-2.142-.925,3.452,3.452,0,0,0-2.337.974,3.9,3.9,0,0,0-1.168,2.629,4.407,4.407,0,0,0,.049,1.12l-3.8,1.217a8.061,8.061,0,0,1-.1-1.314,5.41,5.41,0,0,1,2.239-4.332,8.422,8.422,0,0,1,5.257-1.558,8.184,8.184,0,0,1,5.452,1.8,6.122,6.122,0,0,1,2.191,4.965v13.386h-4.77v-3.992a8.265,8.265,0,0,1-2.775,3.359,7.055,7.055,0,0,1-3.8,1.12m1.558-2.726a4.246,4.246,0,0,0,2.872-1.363,8.536,8.536,0,0,0,2.19-3.651V95.821c-2.677.341-4.527,1.12-5.7,2.385a6.122,6.122,0,0,0-1.7,4.138,3.213,3.213,0,0,0,.633,2.142,2.071,2.071,0,0,0,1.7.828" transform="translate(-296.977 -77.226)" fill="#a97816"/><path d="M436.2,107.712V87.9h4.77v5.306a9.188,9.188,0,0,1,3.213-3.7,7.629,7.629,0,0,1,4.43-1.606v3.407a8.161,8.161,0,0,0-2.872.584,8.842,8.842,0,0,0-2.921,1.9,6.387,6.387,0,0,0-1.85,3.018v10.9H436.2Z" transform="translate(-318.789 -77.483)" fill="#a97816"/><path d="M474.1,102.856a5.542,5.542,0,0,1-4.089-1.558,5.662,5.662,0,0,1-1.558-4.284V84.5H466.6V82.411a4.86,4.86,0,0,0,3.164-1.8,7.136,7.136,0,0,0,1.85-3.31h1.607v5.111h2.969V84.5H473.22V97.988a2.38,2.38,0,0,0,.584,1.752,1.726,1.726,0,0,0,1.363.633,2.079,2.079,0,0,0,1.606-.73,2.744,2.744,0,0,0,.682-1.9H479.6a6.074,6.074,0,0,1-.243,1.558,5.841,5.841,0,0,1-.828,1.655,4.5,4.5,0,0,1-1.7,1.412,7.78,7.78,0,0,1-2.726.487" transform="translate(-334.391 -72.043)" fill="#a97816"/></g></g><g transform="translate(168.035 18.936)"><path d="M508.554,107.4l-1.509,1.363a2.684,2.684,0,0,0-.973-.828,2.64,2.64,0,0,0-1.217-.292,3.192,3.192,0,0,0-1.7.535,3.388,3.388,0,0,0-1.266,1.46,5.1,5.1,0,0,0-.438,2.142,4.515,4.515,0,0,0,.438,2.044,3.553,3.553,0,0,0,1.266,1.412,3.178,3.178,0,0,0,1.752.487,2.577,2.577,0,0,0,2.336-1.314l1.607,1.266a4.983,4.983,0,0,1-1.558,1.46,4.306,4.306,0,0,1-2.288.535,4.887,4.887,0,0,1-3.067-.925,5.913,5.913,0,0,1-1.9-2.434,7.1,7.1,0,0,1-.535-2.677,6.481,6.481,0,0,1,.73-3.067,5.207,5.207,0,0,1,1.947-2.142,5.37,5.37,0,0,1,2.775-.73,4.629,4.629,0,0,1,1.7.292,6.146,6.146,0,0,1,1.266.681C508.067,106.868,508.31,107.112,508.554,107.4Z" transform="translate(-499.5 -105.554)" fill="#a97816"/><path d="M528.042,117.784a4.427,4.427,0,0,1-.194,1.217,3.593,3.593,0,0,1-1.9,2.337,4.1,4.1,0,0,1-1.8.389,3.465,3.465,0,0,1-2.726-1.168,4.316,4.316,0,0,1-1.022-2.969,4,4,0,0,1,1.12-2.969,3.747,3.747,0,0,1,2.726-1.12,3.885,3.885,0,0,1,1.655.341,3.167,3.167,0,0,1,1.265.974,4.257,4.257,0,0,1,.778,1.558A8.962,8.962,0,0,1,528.042,117.784Zm-1.8-.146a3.04,3.04,0,0,0-.535-1.8,1.7,1.7,0,0,0-1.509-.73,1.9,1.9,0,0,0-1.46.682,2.921,2.921,0,0,0,0,3.5,1.9,1.9,0,0,0,1.46.682,1.8,1.8,0,0,0,1.12-.341,1.629,1.629,0,0,0,.73-.876A4.154,4.154,0,0,0,526.241,117.638Z" transform="translate(-510.226 -109.557)" fill="#a97816"/><path d="M541.253,121.383H539.5v-7.788h1.7v1.217a3.421,3.421,0,0,1,.925-1.071,2.145,2.145,0,0,1,1.265-.341,2.221,2.221,0,0,1,1.412.438,2.133,2.133,0,0,1,.73,1.022,2.9,2.9,0,0,1,.925-1.071,2.626,2.626,0,0,1,2.58-.1,2.416,2.416,0,0,1,.828.73,3.248,3.248,0,0,1,.439,1.022,6.955,6.955,0,0,1,.146,1.606v4.284H548.7V117a5.309,5.309,0,0,0-.1-1.071,1.362,1.362,0,0,0-.438-.633,1.2,1.2,0,0,0-.731-.243,1.118,1.118,0,0,0-.681.195,1.409,1.409,0,0,0-.73,1.12,5.617,5.617,0,0,0-.049.974v3.992h-1.753v-3.992a7.4,7.4,0,0,0-.1-1.363,1.082,1.082,0,0,0-.438-.633,1.144,1.144,0,0,0-.779-.243,1.322,1.322,0,0,0-.828.292,1.589,1.589,0,0,0-.535.73,4.417,4.417,0,0,0-.146,1.314v3.943Z" transform="translate(-520.03 -109.506)" fill="#a97816"/><path d="M567.555,113.595v1.071a2.916,2.916,0,0,1,2.434-1.266,3.2,3.2,0,0,1,2.336.974,4.071,4.071,0,0,1,1.169,3.067,4.539,4.539,0,0,1-.973,2.969,3.2,3.2,0,0,1-2.58,1.12,2.47,2.47,0,0,1-1.363-.341,2.285,2.285,0,0,1-.925-.876v4.722H565.9V113.546h1.655Zm-.049,3.894a2.5,2.5,0,0,0,.584,1.7,1.851,1.851,0,0,0,1.46.633,1.9,1.9,0,0,0,1.461-.682,2.5,2.5,0,0,0,.584-1.7,2.372,2.372,0,0,0-.584-1.655,1.851,1.851,0,0,0-1.461-.633,2.075,2.075,0,0,0-1.509.682A2.5,2.5,0,0,0,567.506,117.489Z" transform="translate(-533.579 -109.506)" fill="#a97816"/><path d="M591.077,113.8v4.916c0,1.022,0,1.947.048,2.872h-1.655c0-.389-.049-.779-.049-1.266a2.937,2.937,0,0,1-.925,1.071,2.145,2.145,0,0,1-1.266.341,2.324,2.324,0,0,1-1.558-.535,2.793,2.793,0,0,1-.827-1.363,8.088,8.088,0,0,1-.147-1.9V113.8h1.753v4.089a3.732,3.732,0,0,0,.146,1.217,1.652,1.652,0,0,0,.439.682,1.194,1.194,0,0,0,.73.243,1.459,1.459,0,0,0,.876-.292,1.382,1.382,0,0,0,.536-.828,6.236,6.236,0,0,0,.145-1.558V113.8Z" transform="translate(-543.227 -109.711)" fill="#a97816"/><path d="M605.559,111.439v1.606h-1.947v3.261a2.5,2.5,0,0,0,.146,1.022c.145.292.438.389.876.389a2.012,2.012,0,0,0,.925-.243v1.655a4.52,4.52,0,0,1-1.412.243,2.482,2.482,0,0,1-1.46-.389,1.985,1.985,0,0,1-.73-1.022,5.63,5.63,0,0,1-.1-1.509v-3.407H600.4v-1.606h1.509V109.2h1.7v2.239Z" transform="translate(-551.283 -107.35)" fill="#a97816"/><path d="M620.355,118.122h-5.306a2.542,2.542,0,0,0,.633,1.46,1.763,1.763,0,0,0,1.314.487,2.011,2.011,0,0,0,.925-.243,2.234,2.234,0,0,0,.828-.828l1.266,1.071a3.447,3.447,0,0,1-1.363,1.168,4.257,4.257,0,0,1-1.8.389,3.3,3.3,0,0,1-2.677-1.168,4.288,4.288,0,0,1-.974-2.969,4.189,4.189,0,0,1,1.023-2.921,3.333,3.333,0,0,1,2.628-1.168,3.428,3.428,0,0,1,1.849.535,3.116,3.116,0,0,1,1.217,1.412,5.1,5.1,0,0,1,.438,2.239Zm-1.8-1.412a2.014,2.014,0,0,0-.487-1.363,1.544,1.544,0,0,0-1.217-.487,1.614,1.614,0,0,0-1.217.487A2.379,2.379,0,0,0,615,116.71Z" transform="translate(-557.852 -109.506)" fill="#a97816"/><path d="M635.776,113.749l-.049,1.9a2.7,2.7,0,0,0-.827-.146,1.758,1.758,0,0,0-1.168.341,2.1,2.1,0,0,0-.633.925,4.578,4.578,0,0,0-.146,1.363v3.407H631.2v-7.788h1.752v1.363a2.515,2.515,0,0,1,.925-1.071,2.249,2.249,0,0,1,1.266-.341A2.993,2.993,0,0,1,635.776,113.749Z" transform="translate(-567.091 -109.66)" fill="#a97816"/><path d="M657.956,106.714l-1.364,1.509a1.765,1.765,0,0,0-.778-.681,2.262,2.262,0,0,0-1.022-.243,1.787,1.787,0,0,0-1.315.438,1.475,1.475,0,0,0-.486,1.071,1.271,1.271,0,0,0,.195.73,1.762,1.762,0,0,0,.633.535c.195.1.681.292,1.363.535a7.437,7.437,0,0,1,1.46.633,3.066,3.066,0,0,1,1.022,1.071,3.269,3.269,0,0,1,.39,1.606,3.447,3.447,0,0,1-1.022,2.58,3.833,3.833,0,0,1-2.872,1.022,4.107,4.107,0,0,1-1.947-.438,4.008,4.008,0,0,1-1.411-1.12l1.411-1.46a2.637,2.637,0,0,0,.925.876,2.313,2.313,0,0,0,1.169.292,1.625,1.625,0,0,0,1.314-.487,1.411,1.411,0,0,0,.487-1.12,1.429,1.429,0,0,0-.195-.779,2.784,2.784,0,0,0-.536-.536,8.129,8.129,0,0,0-1.217-.487,12.961,12.961,0,0,1-1.315-.536,2.808,2.808,0,0,1-.925-.73,2.211,2.211,0,0,1-.535-.925,2.943,2.943,0,0,1-.195-1.168,3.475,3.475,0,0,1,.828-2.288,4.377,4.377,0,0,1,4.722-.876A10.693,10.693,0,0,1,657.956,106.714Z" transform="translate(-577.151 -105.4)" fill="#a97816"/><path d="M669.3,113.8l1.509,4.089c.194.487.341,1.022.487,1.509a12.886,12.886,0,0,1,.438-1.558l1.363-4.04h1.85l-3.359,9.444a5.726,5.726,0,0,1-.584,1.314,1.9,1.9,0,0,1-.827.682,2.373,2.373,0,0,1-1.217.292,4.522,4.522,0,0,1-1.412-.243l.243-1.655a2.05,2.05,0,0,0,.876.195,1.39,1.39,0,0,0,.827-.243,1.863,1.863,0,0,0,.536-.828l.389-1.12L667.4,113.8Z" transform="translate(-585.67 -109.711)" fill="#a97816"/><path d="M689,114.417l-1.168,1.168a2.5,2.5,0,0,0-.584-.633,1.268,1.268,0,0,0-.73-.195,1.1,1.1,0,0,0-.731.243.842.842,0,0,0-.292.584.917.917,0,0,0,.1.389,2.116,2.116,0,0,0,.341.292,8.276,8.276,0,0,0,.876.243,5.632,5.632,0,0,1,1.46.487,1.616,1.616,0,0,1,.73.779,2.113,2.113,0,0,1,.243,1.12,2.142,2.142,0,0,1-.341,1.266,2.721,2.721,0,0,1-1.022.925,3.544,3.544,0,0,1-1.7.341,3.343,3.343,0,0,1-1.655-.341,4.073,4.073,0,0,1-1.12-.876l1.168-1.217a3.466,3.466,0,0,0,.779.73,1.68,1.68,0,0,0,.876.243,1.19,1.19,0,0,0,.876-.292.857.857,0,0,0,.292-.633,1.427,1.427,0,0,0-.1-.438.826.826,0,0,0-.292-.292,3.327,3.327,0,0,0-.633-.195,8.1,8.1,0,0,1-1.606-.487,2.425,2.425,0,0,1-.828-.73,2.31,2.31,0,0,1-.292-1.168,2.421,2.421,0,0,1,.73-1.8,2.807,2.807,0,0,1,2.093-.73,3.407,3.407,0,0,1,1.606.389A3.052,3.052,0,0,1,689,114.417Z" transform="translate(-593.881 -109.403)" fill="#a97816"/><path d="M701.659,111.439v1.606h-1.947v3.261a2.51,2.51,0,0,0,.146,1.022c.146.292.438.389.876.389a2.013,2.013,0,0,0,.925-.243v1.655a4.52,4.52,0,0,1-1.411.243,2.483,2.483,0,0,1-1.461-.389,1.984,1.984,0,0,1-.73-1.022,5.61,5.61,0,0,1-.1-1.509v-3.407H696.5v-1.606h1.509V109.2h1.7v2.239Z" transform="translate(-600.606 -107.35)" fill="#a97816"/><path d="M716.555,118.122H711.25a2.532,2.532,0,0,0,.633,1.46,1.761,1.761,0,0,0,1.314.487,2.016,2.016,0,0,0,.925-.243,2.231,2.231,0,0,0,.827-.828l1.265,1.071a3.446,3.446,0,0,1-1.363,1.168,4.255,4.255,0,0,1-1.8.389,3.3,3.3,0,0,1-2.677-1.168,4.291,4.291,0,0,1-.973-2.969,4.192,4.192,0,0,1,1.022-2.921,3.334,3.334,0,0,1,2.629-1.168,3.427,3.427,0,0,1,1.85.535,3.12,3.12,0,0,1,1.217,1.412,5.1,5.1,0,0,1,.438,2.239Zm-1.8-1.412a2.015,2.015,0,0,0-.487-1.363,1.545,1.545,0,0,0-1.217-.487,1.615,1.615,0,0,0-1.217.487,2.384,2.384,0,0,0-.633,1.363Z" transform="translate(-607.225 -109.506)" fill="#a97816"/><path d="M729.152,121.383H727.4v-7.788h1.7v1.217a3.422,3.422,0,0,1,.925-1.071,2.146,2.146,0,0,1,1.266-.341,2.222,2.222,0,0,1,1.412.438,2.139,2.139,0,0,1,.73,1.022,2.9,2.9,0,0,1,.925-1.071,2.626,2.626,0,0,1,2.58-.1,2.427,2.427,0,0,1,.828.73,3.251,3.251,0,0,1,.438,1.022,6.919,6.919,0,0,1,.146,1.606v4.284H736.6V117a5.332,5.332,0,0,0-.1-1.071,1.853,1.853,0,0,0-.438-.633,1.194,1.194,0,0,0-.73-.243,1.117,1.117,0,0,0-.681.195,1.405,1.405,0,0,0-.73,1.12,5.6,5.6,0,0,0-.049.974v3.992h-1.752v-3.992a7.352,7.352,0,0,0-.1-1.363,1.083,1.083,0,0,0-.438-.633,1.346,1.346,0,0,0-.779-.243,1.321,1.321,0,0,0-.827.292,1.59,1.59,0,0,0-.536.73,4.435,4.435,0,0,0-.146,1.314v3.943Z" transform="translate(-616.464 -109.506)" fill="#a97816"/><path d="M757.8,114.417l-1.168,1.168a2.5,2.5,0,0,0-.584-.633,1.268,1.268,0,0,0-.73-.195,1.093,1.093,0,0,0-.73.243.841.841,0,0,0-.292.584.916.916,0,0,0,.1.389,2.134,2.134,0,0,0,.341.292,8.285,8.285,0,0,0,.876.243,5.637,5.637,0,0,1,1.46.487,1.614,1.614,0,0,1,.73.779,2.112,2.112,0,0,1,.244,1.12,2.146,2.146,0,0,1-.341,1.266,2.728,2.728,0,0,1-1.022.925,3.545,3.545,0,0,1-1.7.341,3.339,3.339,0,0,1-1.655-.341,4.065,4.065,0,0,1-1.12-.876l1.168-1.217a3.456,3.456,0,0,0,.779.73,1.679,1.679,0,0,0,.876.243,1.189,1.189,0,0,0,.876-.292.857.857,0,0,0,.292-.633,1.412,1.412,0,0,0-.1-.438.826.826,0,0,0-.292-.292,3.325,3.325,0,0,0-.633-.195,8.1,8.1,0,0,1-1.606-.487,2.424,2.424,0,0,1-.827-.73,2.312,2.312,0,0,1-.292-1.168,2.422,2.422,0,0,1,.73-1.8,2.808,2.808,0,0,1,2.093-.73,3.4,3.4,0,0,1,1.606.389A4.906,4.906,0,0,1,757.8,114.417Z" transform="translate(-629.191 -109.403)" fill="#a97816"/></g></g></g></svg>