<svg xmlns="http://www.w3.org/2000/svg" width="200" height="80" viewBox="50 25 200 80"><g transform="translate(-4.1 -37)"><g transform="translate(4.1 37)"></g><g transform="translate(77.214 51.36)"><g transform="translate(0 34.513)">
  
  <path d="M154.4,96.729V66.5h5.744V94.3h9.979v2.434Z" transform="translate(-154.4 -66.5)" fill="#a97816"/><g transform="translate(19.763)">
   
    <path d="M199.576,74.822a2.62,2.62,0,0,1-1.9.828,2.466,2.466,0,0,1-1.9-.828,2.776,2.776,0,0,1,1.9-4.722,2.428,2.428,0,0,1,1.9.779,2.605,2.605,0,0,1,.779,1.947,2.641,2.641,0,0,1-.779,2m-4.284,3.943h4.77V98.576h-4.77Z" transform="translate(-195 -68.347)" fill="#a97816"/>
    
    <path d="M222.395,108.039a9.011,9.011,0,0,1-6.62-2.775A9.986,9.986,0,0,1,213,97.914a10.362,10.362,0,0,1,2.823-7.545,8.822,8.822,0,0,1,6.62-2.969,8.947,8.947,0,0,1,6.523,2.872,10.4,10.4,0,0,1,2.823,7.691,9.9,9.9,0,0,1-2.823,7.35,9.46,9.46,0,0,1-6.571,2.726M218.841,104c.828,1.8,2,2.677,3.5,2.677s2.677-.876,3.553-2.629a13.834,13.834,0,0,0,1.266-6.231A15.2,15.2,0,0,0,225.9,91.44c-.876-1.8-2.044-2.726-3.553-2.726s-2.677.876-3.5,2.629a14.588,14.588,0,0,0-1.266,6.279A15.826,15.826,0,0,0,218.841,104" transform="translate(-204.238 -77.226)" fill="#a97816"/>
    
    <path d="M257.8,107.506V87.695h4.77V91a8.061,8.061,0,0,1,2.823-2.629,7.2,7.2,0,0,1,3.359-.876,6.107,6.107,0,0,1,4.186,1.558,5.368,5.368,0,0,1,1.752,4.186v14.311h-4.77V93.779A3.953,3.953,0,0,0,269.044,91a2.982,2.982,0,0,0-2.239-.974,4.129,4.129,0,0,0-2.385.876,5.369,5.369,0,0,0-1.85,2.288v14.36H257.8Z" transform="translate(-227.23 -77.278)" fill="#a97816"/>
    
    <path d="M302.6,96.729V66.5h5.647V78.475h10.125V66.5h5.6V96.729h-5.6v-14.9H308.246v14.9Z" transform="translate(-250.222 -66.5)" fill="#a97816"/>
    
    <path d="M364.443,107.988a8.578,8.578,0,0,1-6.815-3.067,11.093,11.093,0,0,1-2.629-7.5,10.85,10.85,0,0,1,2.483-7.156,8.414,8.414,0,0,1,6.864-2.969,7.817,7.817,0,0,1,5.793,2.19,7.718,7.718,0,0,1,2.093,5.647,12.041,12.041,0,0,1-.389,2.921H359.575a8.21,8.21,0,0,0,1.85,5.062,5.473,5.473,0,0,0,4.332,2,6.709,6.709,0,0,0,4.77-2l.974,1.752a9.391,9.391,0,0,1-7.058,3.115m-4.868-11.634h8.713a10.218,10.218,0,0,0,.146-1.752,6.223,6.223,0,0,0-1.119-3.846A3.585,3.585,0,0,0,364.3,89.3a3.788,3.788,0,0,0-3.456,2.191,9.544,9.544,0,0,0-1.266,4.868" transform="translate(-277.116 -77.175)" fill="#a97816"/>
    
    <path d="M398.811,108.039a5,5,0,0,1-3.6-1.46,5.1,5.1,0,0,1-1.509-3.846c0-2.288,1.217-4.186,3.651-5.793a15.775,15.775,0,0,1,8.08-2.629V92.17a3.542,3.542,0,0,0-.925-2.58,2.985,2.985,0,0,0-2.142-.925,3.452,3.452,0,0,0-2.337.974,3.9,3.9,0,0,0-1.168,2.629,4.407,4.407,0,0,0,.049,1.12l-3.8,1.217a8.061,8.061,0,0,1-.1-1.314,5.41,5.41,0,0,1,2.239-4.332,8.422,8.422,0,0,1,5.257-1.558,8.184,8.184,0,0,1,5.452,1.8,6.122,6.122,0,0,1,2.191,4.965v13.386h-4.77v-3.992a8.265,8.265,0,0,1-2.775,3.359,7.055,7.055,0,0,1-3.8,1.12m1.558-2.726a4.246,4.246,0,0,0,2.872-1.363,8.536,8.536,0,0,0,2.19-3.651V95.821c-2.677.341-4.527,1.12-5.7,2.385a6.122,6.122,0,0,0-1.7,4.138,3.213,3.213,0,0,0,.633,2.142,2.071,2.071,0,0,0,1.7.828" transform="translate(-296.977 -77.226)" fill="#a97816"/>
    
    <path d="M436.2,107.712V87.9h4.77v5.306a9.188,9.188,0,0,1,3.213-3.7,7.629,7.629,0,0,1,4.43-1.606v3.407a8.161,8.161,0,0,0-2.872.584,8.842,8.842,0,0,0-2.921,1.9,6.387,6.387,0,0,0-1.85,3.018v10.9H436.2Z" transform="translate(-318.789 -77.483)" fill="#a97816"/>
    <path d="M474.1,102.856a5.542,5.542,0,0,1-4.089-1.558,5.662,5.662,0,0,1-1.558-4.284V84.5H466.6V82.411a4.86,4.86,0,0,0,3.164-1.8,7.136,7.136,0,0,0,1.85-3.31h1.607v5.111h2.969V84.5H473.22V97.988a2.38,2.38,0,0,0,.584,1.752,1.726,1.726,0,0,0,1.363.633,2.079,2.079,0,0,0,1.606-.73,2.744,2.744,0,0,0,.682-1.9H479.6a6.074,6.074,0,0,1-.243,1.558,5.841,5.841,0,0,1-.828,1.655,4.5,4.5,0,0,1-1.7,1.412,7.78,7.78,0,0,1-2.726.487" transform="translate(-334.391 -72.043)" fill="#a97816"/></g></g><g transform="translate(168.035 18.936)"></g></g></g></svg>