<svg xmlns="http://www.w3.org/2000/svg" width="400" height="400" viewBox="0 0 200 200">
<g transform="translate(18 10) scale(2.5)"><path d="M77.2,43.523,93.75,37l11.683,19.617L93.264,41.624Z" transform="translate(-41.616 -37)" fill="#a97817"/><path d="M63.488,54.1,55.7,76.735H70.936Z" transform="translate(-30.582 -45.776)" fill="#a97817"/><path d="M58,43.2l6.474,3.992L70.7,43.2Z" transform="translate(-31.763 -40.182)" fill="#a97817"/><path d="M80.594,107,73,112.6v7.545l7.594,3.261,4.381-3.8Z" transform="translate(-39.461 -72.926)" fill="#693300"/><path d="M84.975,139.2l-4.186,16.6L73,161.592V148.984Z" transform="translate(-39.461 -89.451)" fill="#693300"/><path d="M63.766,138l6.425,2.921-6.815,5.5L57,140.921Z" transform="translate(-31.249 -88.836)" fill="#a97817"/><path d="M77.2,55.6l9.3,5.744,6.766,8.081-5.89-9.151Z" transform="translate(-41.616 -46.546)" fill="#a97817"/><path d="M106.2,69.2l11.634,8.859.633,10.66,3.6-12.218Z" transform="translate(-56.5 -53.526)" fill="#a97817"/><path d="M118.4,98l2,21.126,3.407-12.7Z" transform="translate(-62.761 -68.306)" fill="#a97817"/><path d="M106.339,121.777,94.9,131.61l7.2-11.245L104.149,97Z" transform="translate(-50.701 -67.793)" fill="#a97817"/><path d="M24.8,121.777l11.488,9.833-7.253-11.245L27.039,97Z" transform="translate(-14.724 -67.793)" fill="#a97817"/><path d="M96.929,89.3l-6.718,5.111L88.8,90.322Z" transform="translate(-47.57 -63.842)" fill="#f37021"/><path d="M49.632,107l7.594,5.6v7.545L49.632,123.4l-4.332-3.8Z" transform="translate(-25.245 -72.926)" fill="#693300"/><path d="M45.3,139.2l4.186,16.6,7.74,5.793V148.984Z" transform="translate(-25.245 -89.451)" fill="#693300"/><path d="M48.715,55.6l-9.687,6.62-6.328,7.2,5.89-9.151Z" transform="translate(-18.778 -46.546)" fill="#a97817"/><path d="M18.7,98l-1.947,21.126-3.456-12.7Z" transform="translate(-8.822 -68.306)" fill="#a97817"/><path d="M32,91.4l6.133,7.594-1.314,9.833,3.943-11.293Z" transform="translate(-18.419 -64.919)" fill="#a97817"/><path d="M101.562,91.4l-6.133,7.594,1.314,9.833L92.8,97.533Z" transform="translate(-49.623 -64.919)" fill="#a97817"/><path d="M37.4,89.3l6.718,5.111,1.363-4.089Z" transform="translate(-21.19 -63.842)" fill="#f37021"/><path d="M35.833,43.523,19.331,37,7.6,56.617,19.818,41.624Z" transform="translate(-5.896 -37)" fill="#a97817"/><path d="M19.92,69.2,8.286,78.059,7.7,88.72,4.1,76.5Z" transform="translate(-4.1 -53.526)" fill="#a97817"/></g><g transform="translate(77.214 51.36)"><g transform="translate(0 34.513)"></g></g></svg>